<?xml version="1.0" encoding="UTF-8"?>
<svg id="Layer_2" data-name="Layer 2" xmlns="http://www.w3.org/2000/svg" viewBox="0 0 432 285.6">
  <defs>
    <style>
      .cls-1 {
        fill: #e0771b;
      }

      .cls-2 {
        fill: #d47248;
      }

      .cls-3 {
        fill: #415d82;
      }

      .cls-4 {
        fill: #fff;
      }

      .cls-5 {
        fill: #131c3b;
      }

      .cls-6 {
        fill: #383c80;
      }

      .cls-7 {
        fill: #212d4a;
      }

      .cls-8 {
        fill: #707dc4;
      }

      .cls-9, .cls-10 {
        fill: #f7aa45;
      }

      .cls-11 {
        fill: #cc6a14;
      }

      .cls-12 {
        fill: #66253f;
      }

      .cls-13 {
        fill: #a12848;
      }

      .cls-14 {
        fill: #6c9dba;
      }

      .cls-15 {
        fill: #fdbf4c;
      }

      .cls-16 {
        fill: #ffd363;
      }

      .cls-17 {
        fill: #9d3e52;
      }

      .cls-18 {
        fill: #aecad6;
      }

      .cls-19 {
        stroke: #444594;
      }

      .cls-19, .cls-20, .cls-21 {
        stroke-miterlimit: 10;
      }

      .cls-19, .cls-20, .cls-21, .cls-22 {
        fill: none;
        stroke-linecap: round;
      }

      .cls-23 {
        fill: #3b1c21;
      }

      .cls-24 {
        fill: #1c233d;
      }

      .cls-20 {
        stroke: #b54d3e;
      }

      .cls-25 {
        fill: #e1915a;
      }

      .cls-26 {
        fill: #82a1b8;
      }

      .cls-27 {
        fill: #de5d66;
      }

      .cls-28 {
        fill: #f5d2b3;
      }

      .cls-21 {
        stroke: #66253f;
      }

      .cls-29 {
        fill: #12172e;
      }

      .cls-30 {
        fill: #e3d2bb;
      }

      .cls-22 {
        stroke: #d17b26;
        stroke-linejoin: round;
      }

      .cls-31 {
        fill: #cc2e0e;
      }

      .cls-32 {
        fill: #54231d;
      }

      .cls-33 {
        fill: #e85c20;
      }

      .cls-10 {
        isolation: isolate;
        opacity: .6;
      }

      .cls-34 {
        fill: #ffad7a;
      }

      .cls-35 {
        fill: #2b3b59;
      }

      .cls-36 {
        fill: #3c5b7d;
      }
    </style>
  </defs>
  <g id="OBJECTS">
    <g>
      <ellipse class="cls-28" cx="220.79" cy="269.8" rx="211.21" ry="15.8"/>
      <g>
        <g>
          <path class="cls-29" d="m103.04,200.2c-1.64-.07-3.26-.01-4.85.15-16.31,1.7-29.31,15.15-29.98,32.02-.68,17.16,11.66,31.81,28.2,34.44,1.3.2,2.62.33,3.96.39,25.15,1.92,36.59-16.16,37.22-32.07.59-14.57-8.96-33.91-34.55-34.93Z"/>
          <path class="cls-29" d="m19.79,202.58s2.04,14.43,11.45,16.8c9.41,2.37,81.7,4.84,81.7,4.84l-1.27-29.52-91.88,7.88Z"/>
        </g>
        <path class="cls-3" d="m327,209.57l-219.39-9.41-3.6,23.69s176.62,8.01,206.84,5.7c30.21-2.3,16.15-19.98,16.15-19.98Z"/>
        <g>
          <g>
            <path class="cls-23" d="m170.06,124.26c.12.01.25.02.37.03l-.02.02s-37.77-1.18-69.14-3.66c-6.51-.52-11.81-2.29-17.54-7.13,1.02-26.25,3.55-52.45,7.56-78.42.44-2.81,1.06-5.92,3.34-7.63,1.64-1.23,3.8-1.46,5.84-1.66,23.4-2.19,46.8-4.38,74.94,1.06-4.3,28.09-6.76,66.39-5.35,97.39Z"/>
            <path class="cls-1" d="m181.34,133.01c-.09-4.67-3.8-8.47-8.47-8.61-.74-.02-1.52-.03-2.44-.11l-.02.02s-37.77-1.18-69.14-3.66c-6.51-.52-11.81-2.29-17.54-7.13-1.09,27.82-.5,55.72,1.78,83.48,30.64,3.23,58.46,4.83,92.67,6.19,2.08-28.07,3.59-48.98,3.16-70.18Z"/>
          </g>
          <g>
            <path class="cls-13" d="m166.74,206.02s-43.96,16.8-53.16,16.44c-6.91-.27-8.25-36.83-8.48-55.03-.09-6.05-.04-10.07-.04-10.07,0,0,58.11.31,61.75,5.11.21.28.39.68.56,1.19,2.65,8.32-.63,42.36-.63,42.36Z"/>
            <path class="cls-27" d="m167.36,163.66c-1.42-1.13-3.48-.97-5.34-1.04-5.27-.21-42.3,3.37-56.92,4.81-.09-6.05-.04-10.07-.04-10.07,0,0,58.11.31,61.75,5.11.21.28.39.68.55,1.19Z"/>
          </g>
        </g>
        <g>
          <g>
            <path class="cls-7" d="m421.02,243.4c-.63,15.92-12.07,33.99-37.22,32.07-1.34-.05-2.67-.18-3.96-.39-16.55-2.63-28.89-17.28-28.2-34.44.67-16.86,13.68-30.31,29.98-32.02,1.59-.17,3.21-.22,4.85-.15,25.58,1.03,35.13,20.37,34.55,34.93Z"/>
            <path class="cls-35" d="m412.71,243.09c-.57,14.43-12.14,30.54-32.88,32-16.55-2.63-28.89-17.28-28.2-34.44.67-16.86,13.68-30.31,29.98-32.02,21.45,3.49,31.64,21.05,31.1,34.46Z"/>
            <circle class="cls-26" cx="381.86" cy="241.85" r="24.43"/>
            <circle class="cls-18" cx="379.94" cy="241.78" r="13.41"/>
          </g>
          <path class="cls-5" d="m362.8,204.57l12.21,39.04c.74,2.38,3.4,3.57,5.67,2.54h0c1.87-.85,2.84-2.93,2.28-4.91l-10.49-37.22"/>
          <g>
            <path class="cls-15" d="m420.99,216.28c-13.09-10.15-31.9-9.93-46.32-5.51-1.84.57-3.53,1.2-5.09,1.9-10.63,4.76-15.09,12.51-20.45,22.35-6.23-8.84-6.05-25.48,6.25-36.91,9.6-8.93,23.41-13.53,36.28-11.07.07.01.13.03.2.04.72.13,1.43.3,2.13.47,10.56,2.73,19.69,10.39,24.28,20.13,0,.01.01.01.01.01,1.29,2.72,2.22,5.6,2.71,8.59Z"/>
            <path class="cls-9" d="m391.66,187.04c-5.44.96-10.6,3.37-14.47,7.04-5.16,4.88-7.84,11.81-7.61,18.6-10.63,4.75-15.08,12.51-20.45,22.34-6.23-8.84-6.06-25.48,6.24-36.91,9.61-8.93,23.42-13.52,36.29-11.07Z"/>
            <path class="cls-16" d="m418.27,207.68c-2.52-2.07-5.45-3.72-8.49-4.83-7.7-2.84-16.07-3.03-24.22-4.07-1.83-.23-4.06-.86-4.44-2.68-.29-1.4.75-2.7,1.79-3.69,2.56-2.4,5.64-4.2,8.96-5.34.72.13,1.43.3,2.13.47,10.55,2.74,19.69,10.4,24.27,20.14Z"/>
          </g>
        </g>
        <g>
          <g>
            <rect class="cls-5" x="205.45" y="77.56" width="118.78" height="5.29" transform="translate(174.18 341.65) rotate(-87.72)"/>
            <path class="cls-11" d="m259.23,120.56l-3.8,94.44,42.22.32s1.82-65.75.91-68.28c-.4-1.11-31.1-2.18-31.1-2.18l.18-24.13-8.41-.17Z"/>
          </g>
          <polygon class="cls-1" points="203.86 146.82 200.32 133.97 260.05 128.88 262.67 160.08 205.38 163.35 203.86 146.82"/>
          <g>
            <path class="cls-13" d="m284.13,213.45l-48.61,11.78-29.05-1.26-1.07-50.79-1.39-6.31s6.17-.81,13.97-1.76c11.7-1.43,27.11-3.2,30.93-3.05,6.36.25,36.14.43,36.73,2.7.06.22.09.81.12,1.71.27,8.34-1.63,46.98-1.63,46.98Z"/>
            <path class="cls-27" d="m285.82,171.03l-52.26,4.2-9.42.64-6.15-10.76c11.7-1.43,27.11-3.2,30.93-3.05,6.36.25,36.14.43,36.73,2.7.06.22.14,5.36.17,6.27Z"/>
          </g>
          <g>
            <path class="cls-6" d="m274.71,172.18c-6.79.8-13.01,5.36-15.81,11.59-.1-1.88-1.37-3.51-2.85-4.66s-3.19-2.39-4.73-3.47c-3.99-2.81-6.56-7.12-6.69-12,4.53,2.83,10.07,3.41,15.37,4.07s10.86,1.57,14.71,4.47Z"/>
            <g>
              <path class="cls-25" d="m289,116.04s15.34,7.95,26.45,11.19l-1,14.57s-15.61-2.71-31.52-9.55l6.07-16.21Z"/>
              <path class="cls-8" d="m264.75,116.76c1.85-4.73,3.71-9.45,6.63-15.02.42.15.83.29,1.25.44,2.91,1.01,5.57,2.59,7.9,4.61,3.82,3.32,7.92,6.41,12.23,9.56-2.84,5.6-5.33,12.17-8.36,18.3-3.64-1.29-10.48-3.52-17.15-5.89-.05-4.37-.96-6.66-2.5-12Z"/>
            </g>
            <g>
              <g>
                <path class="cls-25" d="m290.31,204.36s-2.68,7.99-1.93,9.27,18.93,2.93,19.88,1.09-4.76-6-5.24-6.51c-.49-.51-1.28-2.42-1.28-2.42l-11.43-1.43Z"/>
                <path class="cls-12" d="m287.96,212.68c-.02,1.02-.05,2.04-.07,3.05,6.53,2.01,13.55,2.43,20.27,1.21.06-.92.13-1.84.19-2.71-6.76.68-13.65.03-20.39-1.55Z"/>
                <path class="cls-12" d="m293.37,215c.35-2.1,1.49-4.05,3.15-5.39s3.8-2.04,6.36-2.16c.9.77,1.79,1.55,2.94,2.64-2.29.2-4.44,1.63-5.51,3.66-.33.62-.63,1.36-1.3,1.59-.34.11-.7.06-1.05.01-1.58-.21-3.15-.43-4.59-.35Z"/>
              </g>
              <g>
                <path class="cls-25" d="m275.94,206.64s-2.68,7.99-1.93,9.27,18.93,2.93,19.88,1.09-4.76-6-5.24-6.51c-.49-.51-1.28-2.42-1.28-2.42l-11.43-1.43Z"/>
                <path class="cls-12" d="m273.59,214.95c-.02,1.02-.05,2.04-.07,3.05,6.53,2.01,13.55,2.43,20.27,1.21.06-.92.13-1.84.19-2.71-6.76.69-13.65.04-20.39-1.55Z"/>
                <path class="cls-12" d="m279,217.28c.35-2.1,1.49-4.05,3.15-5.39s3.8-2.04,6.36-2.16c.9.77,1.79,1.55,2.94,2.64-2.29.2-4.44,1.63-5.51,3.66-.33.62-.63,1.36-1.3,1.59-.34.11-.7.06-1.05.01-1.58-.22-3.15-.44-4.59-.35Z"/>
              </g>
              <path class="cls-17" d="m273.24,146.46s27.87,4.32,30.22,7.95-2.03,52.32-2.03,52.32l-14.14-2.19-4.74-30.26-27.84-21.92"/>
              <g>
                <path class="cls-17" d="m236.03,153.76s.01,12.39,8.97,16.55c8.3,3.85,29.62,7.25,29.62,7.25l-.74,30.28,16.33,2.49s8.04-40.7,4.17-46.39c-3.87-5.7-34.36-13.14-34.36-13.14l-23.99,2.96Z"/>
                <path class="cls-21" d="m291.31,204.4c1.56-12.26,2.87-24.08,4.15-37.64.23-2.44-.21-5.28-2.56-6.23-5.93-2.41-11.84-3.94-17.57-5.38"/>
                <path class="cls-21" d="m279.45,173.17c-1.64.03-3.23.97-4.04,2.39"/>
                <path class="cls-21" d="m276.23,177.4c1.51-.77,3.34-.92,4.95-.39"/>
              </g>
            </g>
            <g>
              <g>
                <path class="cls-25" d="m210.23,121.89l-1.89-3.89s10.86-7.58,19.89-9.91l4.44,15.52-22.44-1.72Z"/>
                <g>
                  <path class="cls-8" d="m298.94,152.02c-7.01-1.18-7.14,3.67-9.44,4.47-4.84,1.69-15.86-.85-18.31,13.01-1.73-.01-3.67-.07-5.72-.21-7.65-.54-16.87-2.28-22.44-7.08,1.09,6.55,8.97,12.11,14.83,17.67,1.8,1.7,3.4,3.4,4.56,5.14-1.24.04-2.62-.59-3.72-1.12-.71-1.38-1.56-2.57-2.5-3.64-6.89-7.82-18.92-8.79-20.93-24.07-1.4-10.73.96-30.62.96-30.62l-10.15-.2c3.85-10.8-7.97-13.54-7.97-13.54,16.92-9.67,35.32-12.17,35.32-12.17,6.9,1.5,18.33-1.4,22,8.42,1.17,7.58-7.66,32.35-.14,35.85,4.02,1.87,9.98,3.44,14.92,4.81,4.47,1.25,8.12,2.32,8.73,3.28Z"/>
                  <g>
                    <path class="cls-19" d="m276.51,110c-.55,6.72-1.79,13.38-3.69,19.85"/>
                    <path class="cls-19" d="m280.37,118.7c-1.2,3.6-3.6,6.79-6.73,8.94"/>
                    <path class="cls-19" d="m246.96,108.83c1.14,6.42-.96,13.3-5.53,18.09"/>
                    <path class="cls-19" d="m259.62,145.37c5.25,2.75,11.35,3.84,17.22,3.09"/>
                  </g>
                  <path class="cls-30" d="m262.42,185.01c-1.24.04-2.62-.59-3.72-1.12-.71-1.38-1.56-2.57-2.5-3.64.56-.06,1.12-.2,1.66-.38,1.8,1.71,3.4,3.41,4.56,5.14Z"/>
                  <path class="cls-30" d="m298.94,152.02c-7.01-1.18-7.14,3.67-9.44,4.47-4.84,1.69-15.86-.85-18.31,13.01-1.73-.01-3.67-.07-5.72-.21.68-2.59,1.18-5.24,2.11-7.74,1.08-2.92,2.9-5.75,5.68-7.17,2.9-1.48,6.36-1.23,9.48-2.15,2.64-.79,4.95-2.37,7.45-3.48,4.49,1.24,8.14,2.31,8.75,3.27Z"/>
                </g>
              </g>
              <path class="cls-2" d="m251.36,101.95s5.13,11.41,9.75,11.59,8.34-9.96,8.34-9.96l-18.09-1.63Z"/>
            </g>
            <g>
              <path class="cls-15" d="m248.33,133.06c1.2-8.78,1.1-17.73.2-26.49,3.59,2.43,6.91,5.27,9.95,9.17.47,10.9.93,21.81,1.4,32.71-.65-1.36-2.48-1.74-3.94-1.35s-2.7,1.32-4.05,1.99-3.02,1.04-4.33.29c.36-5.01-.08-10.07.77-16.32Z"/>
              <path class="cls-15" d="m273.91,101.54c2.56-.12,5.11,1.58,5.98,3.99.69,4.86-.89,10.07-3.98,14.17-3.1,4.09-7.81,9.71-12.7,8.14-6.99-2.24-10.23-10.15-14.34-15.32-2.7-3.39-4.28-7.34-8.01-9.55-1.84,0-3.34.48-4.89,1.01,1.16-3.18,5.25-4.61,8.36-3.26,1.08-1.55,3.06-2.43,5.45-2.01,5,3.81,7.37,10.99,13.22,13.41,2.24.92,4.63-1.68,6.09-3.61s2.14-4.43,1.85-6.83c.31.02.62-.03,2.97-.14Z"/>
              <g>
                <path class="cls-22" d="m245.09,102.07c2.86,1.16,5.03,3.54,6.85,6.04,1.82,2.49,3.38,5.19,5.53,7.4s5.04,3.94,8.13,3.82"/>
                <path class="cls-22" d="m275.13,102.88c.85,2.37.76,5.06-.24,7.37s-2.91,4.21-5.22,5.21"/>
                <path class="cls-22" d="m249.84,113.64c2.24,3.92,5.1,7.48,8.43,10.53"/>
              </g>
            </g>
            <g>
              <path class="cls-25" d="m246.16,122.74c-5.24-1.4-21.61-3.23-32.22-6.07-2.73-.73-5.71.49-6.89,3.09-.94,2.07-1.19,4.59-.74,6.86.54,2.79,2.57,5.38,5.35,5.72,9.85,1.2,24.54.72,31.48.17,1.25-3.41,2.37-6.68,3.02-9.77Z"/>
              <g>
                <path class="cls-25" d="m236.93,125.77c1.57-1.01,3.21-1.93,4.96-2.81,1.13-.57,2.43-.71,3.65-.38.79.21,1.58.44,2.39.7.45.14.87.37,1.24.66,2.56,2.03,4.94,4.38,6.45,7.28,1.62,3.1,2.13,6.94.69,10.13-.33.72-.99,1.51-1.75,1.3-.51-.14-.79-.67-.98-1.16-.65-1.72-.78-3.64-.35-5.44,1.18,2.12,1.27,4.81.23,7-.26.56-.62,1.11-1.15,1.42-.53.32-1.28.33-1.73-.1-.44-.43-.46-1.13-.42-1.75.12-2.12.45-4.24.98-6.3.86,2.59.44,5.57-1.12,7.81-.38.55-.85,1.07-1.47,1.32s-1.42.14-1.82-.4c-.29-.38-.32-.89-.32-1.37,0-2.38.45-4.76,1.35-6.96.46,2.47-.1,5.12-1.52,7.19-.41.59-.91,1.17-1.59,1.41-.68.24-1.55.05-1.89-.59-.3-.57-.09-1.26.14-1.86.56-1.47,1.26-3.13,1.87-5.09-3.38-3.24-5.65-6.85-7.84-12.01Z"/>
                <path class="cls-20" d="m246.73,143.53c.87-1.78,1.34-3.77,1.35-5.75"/>
                <path class="cls-20" d="m250.32,143.04c.81-2,1.23-4.16,1.23-6.32"/>
                <path class="cls-20" d="m253.83,141.63c.84-2.08,1.1-4.4.74-6.62"/>
              </g>
              <path class="cls-20" d="m226.31,118.76c-2.13-.46-4.28-.83-6.45-1.1"/>
            </g>
            <g>
              <path class="cls-2" d="m276.66,89.62c.63-1.56,1.3-3.18,2.59-4.34s3.38-1.72,4.96-.86,2.12,2.77,2.01,4.44c-.15,2.41-1.32,4.72-3.21,6.33s-4.48,2.49-7.09,2.42"/>
              <path class="cls-25" d="m243.81,89.74c-7.28-8.77-4.15-35.89,17.62-36.27,18.19,1.1,25.34,19.69,17.83,35.51,5.42,23.88-30.92,25.16-35.45.76Z"/>
              <g>
                <path class="cls-4" d="m260.27,95.3s-1.29,5.83,3.61,7.16c4.77,1.3,6.65-5.51,6.65-5.51,0,0-6.01-3.11-10.26-1.65Z"/>
                <circle class="cls-24" cx="257.09" cy="86.17" r="1.24"/>
                <circle class="cls-24" cx="271.87" cy="86.33" r="1.24"/>
                <g>
                  <path class="cls-32" d="m265.13,92.27c-1.35-1.48-3.68-1.97-5.51-1.15-.99.45-1.81,1.22-2.8,1.66-.99.45-2.34.45-2.98-.42-.67,1.34-.19,3.06.87,4.12s2.56,1.58,4.05,1.79c1.74.25,3.61.1,5.08-.87,1.45-.96,2.94-3.31,1.29-5.13Z"/>
                  <path class="cls-32" d="m265.62,92.29c1.46-1.37,3.83-1.67,5.59-.71.95.52,1.71,1.36,2.66,1.88s2.29.64,3.01-.18c.57,1.39-.06,3.06-1.19,4.04s-2.68,1.37-4.17,1.46c-1.75.11-3.61-.18-4.99-1.27-1.4-1.07-2.7-3.54-.91-5.22Z"/>
                </g>
                <g>
                  <path class="cls-25" d="m269.31,87.51c.26,1.37.45,2.93-.43,4.01-.62.77-1.66,1.1-2.64,1.1s-1.95-.3-2.89-.6c-.53-.17-1.07-.34-1.54-.63-.47-.3-.87-.74-1-1.28,3-.83,5.96-1.83,8.5-2.6Z"/>
                  <path class="cls-2" d="m261.11,90.28c1.08,1.41,2.97,1.97,4.75,1.98.84.01,1.73-.11,2.39-.63.87-.69,1.11-1.93,1-3.04s-.5-2.17-.74-3.34c.68,1.18,1.38,2.39,1.58,3.74s-.22,2.88-1.37,3.61c-.85.54-1.92.57-2.93.52-1.09-.06-2.2-.19-3.17-.68-.98-.5-1.79-1.43-1.51-2.16Z"/>
                </g>
                <path class="cls-32" d="m271.07,75.48c.72-1.3,1.81-2.36,3.11-2.81,1.3-.44,2.8-.21,3.9.75s1.7,2.67,1.35,4.17c-2.22-2.47-5.79-3.18-8.36-2.11Z"/>
                <path class="cls-32" d="m260.48,75.4c-.6-1.54-1.75-2.84-3.22-3.42-1.46-.57-3.22-.37-4.51.66s-2.01,2.89-1.63,4.52c2.15-2.5,5.74-3.42,9.36-1.76Z"/>
              </g>
              <path class="cls-32" d="m246.81,64.42c-1.58,3.69-.44,8.56.44,11.89-.38,3.16-1.14,9.01-2.58,13.9-1.95-.57-1.35.08-2.83-.83-2.86-7.79-6.11-17.11-5.12-25.24,1.56-3.38,4.76-5.06,7.91-6.04.97-3.64,3.96-6.51,7.41-8.01,3.45-1.5,7.32-1.78,11.07-1.55,7.56.47,14.99,2.98,21.11,7.78.28,2.01.15,4.07-.32,6.11.82,1.3,1.44,2.73,2.1,5.27-.88,6.34-2.64,12.55-5.17,17.53.66-4.26,1.6-9.19,1.01-13.34-.87-6.12-4.63-12.17-9.74-14.6-15.93-7.59-24.05,4.25-25.29,7.13Z"/>
              <path class="cls-25" d="m245.69,89.01c-.7-1.35-1.44-2.75-2.72-3.73s-3.24-1.41-4.63-.6-1.73,2.5-1.51,3.97c.32,2.11,1.58,4.11,3.45,5.46s4.32,2.05,6.71,1.9"/>
            </g>
          </g>
          <g>
            <rect class="cls-35" x="146.07" y="90.96" width="118.78" height="5.29" transform="translate(103.76 295.19) rotate(-87.72)"/>
            <path class="cls-15" d="m199.85,133.96l-3.2,92.47c8.38.66,32.05,1.89,41.66,1.25,0,0,1.78-64.71.86-67.23-.4-1.11-31.1-2.18-31.1-2.18l.18-24.13-8.4-.18Z"/>
          </g>
        </g>
        <g>
          <g>
            <path class="cls-15" d="m387.5,155.97c-.15,11.77-.5,21.18-.5,21.18,0,0-19.1,9.68-30.81,26.7-11.72,17-13.1,24.75-19.81,27.43-1.14.45-4.74.8-10.08,1.03-26.09,1.18-93.8.05-119.99-.99-31.55-1.25-105.53-5.61-111.93-6.72-6.4-1.1-6.77-22.85-40.62-25.69-27.05-2.27-37.35,17.36-39.23,23.15l-10.25-3.47s.25-3.89,1.48-8.53c-.94-2.95-1.87-7.79-2.15-15.63-.2-5.57,1.09-21.39,3.31-41.19,1.01-9,2.21-18.84,3.54-28.9,44.33,4.85,96.01,5.51,110.44,5.58h.01c2.53.02,3.91.02,3.91.02l.15-.17c1.03.09,7.11.91,9.43,7.51,1.94,5.52.25,52.1-.67,73.82-.06,1.35-.11,2.6-.15,3.74-.2,4.56-.34,7.34-.34,7.34,40.22,4.61,119.46,6.44,168.28,5.94,1.36-6.23,2.54-12.85,3.53-19.71,3.93-26.74,5.37-57.48,5.67-85.26,0-.98.02-1.93.02-2.88.34-43.6-2.09-79.19-2.09-79.19l-.74-.03.56-.51c1.23-2.21,2.79-4.46,4.57-6.58,4.64-5.5,10.78-10.09,16.39-10.79,4.44,2.37,7.06,4.87,9.02,7.34.42.53.8,1.04,1.17,1.57.22.31.42.61.63.91,1.16,1.72,2.19,3.42,3.5,5.01,4.26,5.23,24.68,36.97,35.82,60.78.27.56.52,1.11.77,1.66.15.34.3.68.45,1.01,2.91,6.48,5.03,12.22,5.78,16.5.11.64.2,1.25.26,1.84,0,.11.02.23.02.34.03.28.05.56.08.84.26,3.38.41,7.35.52,11.56.17,7.55.14,15.96.05,23.44Z"/>
            <path class="cls-16" d="m133.73,211.1c-.06,1.35-.11,2.6-.15,3.74-1.56-.5-3.11-1-4.66-1.49,2.33-19.99,3.03-40.17,2.08-60.27-.3-6.2-.86-12.72-4.41-17.81-1.52-2.18-3.47-3.93-5.67-5.34,2.53.02,3.91.02,3.91.02l.15-.17c1.03.09,7.11.91,9.43,7.51,1.93,5.51.24,52.09-.68,73.81Z"/>
            <path class="cls-10" d="m387,177.15s-19.1,9.68-30.82,26.69c-11.72,17.01-13.1,24.76-19.8,27.43-1.14.45-4.74.8-10.08,1.04-26.09,1.18-93.8.05-119.99-.99-31.56-1.25-105.53-5.61-111.93-6.72-6.4-1.1-6.77-22.85-40.62-25.69-27.05-2.27-37.35,17.35-39.24,23.14l-10.24-3.46s.24-3.89,1.47-8.53c-.94-2.95-1.87-7.79-2.15-15.63-.2-5.57,1.1-21.39,3.31-41.19,1.88,1.95,3.98,3.7,6.22,5.16,10.04,6.55,22.29,8.6,34.17,10.24,11.88,1.64,24.1,3.11,34.69,8.76,12.82,6.84,21.96,19.13,34.39,26.65,5.5,3.33,11.31,5.59,17.35,7.05-.28,6.73-.49,11.07-.49,11.07,40.22,4.61,119.46,6.43,168.28,5.94,1.36-6.23,2.53-12.84,3.53-19.71,9.02-1.62,17.8-4.18,26.28-8.15,27.45-12.84,46.24-38.65,56.1-67.72.48,19.48-.43,44.62-.43,44.62Z"/>
            <path class="cls-16" d="m387.5,155.97c-8.81,15.28-21.26,28.48-36.18,37.88,5.39-12.3,10.79-24.61,16.19-36.92-8.72-1.53-14.7-2.86-20.18-5.33-1.85-.82-3.96-2.51-3.27-4.42.49-1.34,2.1-1.82,3.49-2.13,5.76-1.26,11.5-2.52,17.26-3.78,1.34-8.76,1.79-16.16,1.25-23.47-5-32.61-21.88-64.17-47.03-86.69-2.06.42-4.08,1.44-5.98,2.83,4.64-5.5,10.78-10.09,16.39-10.79,4.44,2.37,7.06,4.87,9.02,7.34.42.53.8,1.04,1.17,1.57.22.31.42.61.63.91,1.16,1.72,2.19,3.42,3.5,5.01,4.26,5.23,24.68,36.97,35.82,60.78.27.56.52,1.11.77,1.66.15.34.3.68.45,1.01,2.91,6.48,5.03,12.22,5.78,16.5.11.64.2,1.25.26,1.84,0,.11.02.23.02.34.03.28.05.56.08.84.26,3.38.41,7.35.52,11.56.16,7.57.13,15.98.04,23.46Z"/>
          </g>
          <g>
            <path class="cls-35" d="m387,177.15s-19.1,9.68-30.82,26.69c-11.72,17.01-13.1,24.76-19.8,27.43-1.14.45-4.74.8-10.08,1.04,23.55-14.61,55.83-67.87,56.38-110.78,1.19-.21,2.62-.69,4.17-1.41,1.55,18.65.15,57.03.15,57.03Z"/>
            <path class="cls-5" d="m386.92,120.97c-4.62,2.07-10.12,2.45-15.18,2.61-18.9.58-38.04.48-56.96-.27-1.35-.05-2.7-.11-4.05-.17.01-.97.02-1.93.02-2.88,20.2.91,40.69,1.06,60.9.45,5.08-.15,10.61-.55,14.92-2.77.12.65.2,1.26.25,1.84,0,.12.02.23.02.35.03.27.05.55.08.84Z"/>
            <g>
              <path class="cls-35" d="m367.89,128.14c-.28-.18-.59-.43-.93-.71-.92-.75-2.1-1.11-3.29-1-7.11.62-14.69.72-22.09.76-2.11.01-3.9,1.62-4.07,3.72-.17,2.16-.11,4.39.15,6.52.24,1.91,1.78,3.39,3.69,3.58,8.58.85,16.93.86,25.37-.8,1.11-.22,2.04-1.01,2.43-2.08,1.23-3.33,2.13-7.86-1.26-9.99Z"/>
              <g>
                <path class="cls-33" d="m338.68,135.78c0-1.17.03-2.37.11-3.64.14-2.3,2.04-4.11,4.35-4.07,7.41.12,14.86-.18,22.46-.7,2.38-.16,4.46,1.65,4.59,4.04.06,1.16.1,2.34.11,3.52.03,2.12-1.46,3.97-3.55,4.33-6.88,1.16-17.32,1.4-24.11.84-2.24-.2-3.97-2.08-3.96-4.32Z"/>
                <path class="cls-31" d="m340.24,135.45c-.05-.8-.07-1.62-.06-2.43.02-2.3,1.95-3.87,4.25-3.83,3.53.06,7.07-.11,10.57.07-1.98,6.04,1.67,8.35,4.92,9.58-4.96.58-10.2.8-15.1.68-2.41-.06-4.42-1.67-4.58-4.07Z"/>
                <path class="cls-34" d="m365.23,128.74c-4.82.25-9.63.5-14.45.74-.3.02-.61.04-.86.2-.6.4-.4,1.4.18,1.82s1.36.42,2.07.4c3.94-.08,7.87-.16,11.81-.25.61,0,1.25-.03,1.81-.28s1.04-.79,1.01-1.41c-.02-.59-.72-1.13-1.57-1.22Z"/>
              </g>
            </g>
            <g>
              <path class="cls-36" d="m380.34,100.43c-1.09.29-2.2.56-3.31.82-2.31.54-4.64,1.02-6.98,1.42-9.79,1.72-19.78,2.26-29.7,1.61-.72-.05-1.42-.09-2.14-.16h-.01l-.72-.06c-1.49-.48-2.76-1.12-3.87-1.88-1.74-1.17-3.08-2.62-4.23-4.22-1.02-3.68-1.97-7.39-2.82-11.11-3.01-12.94-5-26.03-5.9-39.22.71-3.36,2.22-6.1,4.3-8.29,1.29-2.02,3.19-3.44,5.38-4.49,1.9-.91,3.99-1.56,6.08-2.06.1-.02.18-.04.28-.07.96-.22,1.93-.43,2.91-.64.22.31.42.61.62.92.62.92,1.2,1.83,1.81,2.72.53.78,1.08,1.55,1.69,2.29.43.53,1.02,1.32,1.75,2.35h0c5.08,7.15,16.8,25.55,26.48,43.45,2.17,4.02,4.24,8,6.11,11.83.51,1.06,1.01,2.1,1.5,3.14.27.55.53,1.1.77,1.65Z"/>
              <path class="cls-14" d="m333.62,102.18c-1.74-1.17-3.08-2.62-4.23-4.22-1.02-3.68-1.97-7.39-2.82-11.11,2.69-16.97,3.95-34.27,3.78-52.01,1.9-.91,3.99-1.56,6.08-2.06.1-.02.18-.04.28-.07.74,23.19-.3,46.44-3.09,69.47Z"/>
              <path class="cls-14" d="m340.36,104.28c-.72-.05-1.42-.09-2.14-.16,3.94-22.55,5.23-45.56,3.84-68.41.53.78,1.08,1.55,1.69,2.29.43.53,1.02,1.32,1.75,2.35h0c-.23,21.41-1.95,42.78-5.14,63.93Z"/>
              <path class="cls-14" d="m378.08,95.63c-.32,1.88-.67,3.75-1.05,5.61-2.31.54-4.64,1.02-6.98,1.42,1.3-6.2,1.94-12.53,1.92-18.87,2.17,4.03,4.24,8.01,6.11,11.84Z"/>
              <path class="cls-5" d="m380.79,101.44c-13.94,3.12-28.91,4.69-40.92,4.24h-.04c-6.07-.24-11.32-4.53-12.78-10.45-3.19-12.96-5.82-27.61-7.83-43.54-.88-6.99,2.67-13.83,8.85-17.05,3.35-1.75,6.83-3.13,10.37-4.14.67.83,1.25,1.66,1.8,2.49-3.71.97-7.35,2.38-10.85,4.2-5.11,2.66-8.05,8.35-7.32,14.15,1.99,15.82,4.59,30.35,7.76,43.21,1.16,4.68,5.31,8.07,10.1,8.26h.03c11.61.43,26.07-1.06,39.6-4.03.44.89.85,1.79,1.23,2.66Z"/>
            </g>
          </g>
          <g>
            <path class="cls-35" d="m329.43,23.17c-3.68.46-7.57,2.58-11.13,5.53-3.97,3.29-7.51,7.63-9.84,11.84l-.55.51-179.18-6.41c-.01.05-.01.1-.02.14-.04.31-.09.64-.13.95-7.53,50.39-3.77,94.03-3.77,94.03,0,0,.06,0,.15.02l-.15.18s-62.25.1-114.36-5.61c5.03-38.09,11.99-79.47,17.84-92.07.12-.24.22-.47.33-.7.06-.11.11-.23.18-.34,1.62-3.15,3.49-6.04,5.57-8.71C43.76,10.52,57.38,3.37,71.1.58c16.88-3.43,204.46,9.35,235.48,15.4,10.86,2.11,17.96,4.57,22.85,7.19Z"/>
            <path class="cls-36" d="m329.43,23.17c-3.68.46-7.57,2.58-11.13,5.53-2.98-2.66-8.12-3.46-12.42-3.9-65.83-6.69-129.59-8.71-195.06-12.61-16.92-1.01-35.39-1.1-52.05,1.99-8.45,1.56-16.83,4.29-24.4,8.35C43.76,10.52,57.38,3.37,71.1.58c16.88-3.43,204.46,9.35,235.48,15.4,10.86,2.11,17.96,4.57,22.85,7.19Z"/>
            <path class="cls-5" d="m28.8,31.23c5.96-.7,12.2-.45,18.33-.22l1.24.06c7.48.3,15.59.55,23.44.8,20.97.67,42.58,1.36,56.9,2.9-.04.31-.09.64-.13.95-14.28-1.55-35.86-2.23-56.8-2.9-7.84-.24-15.96-.5-23.45-.8l-1.24-.06c-6.3-.25-12.72-.51-18.8.3"/>
          </g>
        </g>
        <g>
          <g>
            <path class="cls-7" d="m89.79,242.45c-.63,15.92-12.07,33.99-37.22,32.07-1.34-.05-2.67-.18-3.96-.39-16.55-2.63-28.89-17.28-28.2-34.44.67-16.86,13.68-30.31,29.98-32.02,1.59-.17,3.21-.22,4.85-.15,25.58,1.02,35.13,20.36,34.55,34.93Z"/>
            <path class="cls-35" d="m81.48,242.14c-.57,14.43-12.14,30.54-32.88,32-16.55-2.63-28.89-17.28-28.2-34.44.67-16.86,13.68-30.31,29.98-32.02,21.45,3.48,31.63,21.05,31.1,34.46Z"/>
            <circle class="cls-26" cx="50.62" cy="240.89" r="24.43"/>
            <circle class="cls-18" cx="48.71" cy="240.82" r="13.41"/>
          </g>
          <g>
            <path class="cls-15" d="m109.01,229.09c-2.36.08-4.71.14-7.08.21l-2.91.09c-5.23.14-9.89-2.88-11.6-7.39-1.49-3.98-3.4-7.87-5.62-11.73-15.85-3.88-32.4-5.37-49.88-4.89-6.24,4.47-10.07,10.05-13.41,16.37-1.21,2.28-3.96,3.53-6.7,3.06-4.65-.81-8.54-1.65-11.81-2.49,2.7-8.56,6.74-16.77,12.01-24.42,2.85-4.15,6.57-7.64,10.86-10.35,6.48-4.1,14.29-6.4,22.47-6.43,10.45-.03,21.02,1.05,31.54,3.28,10.62,2.24,19.53,8.8,24.12,17.81,4.25,8.32,6.94,17.43,8.01,26.88Z"/>
            <path class="cls-16" d="m109.01,229.09c-2.36.08-4.71.14-7.08.21-1.59-10.93-4.35-21.92-12.25-29.32-7.89-7.38-19.21-9.51-29.87-11.26-12.17-1.99-25.12-3.75-36.94-1.19,6.48-4.1,14.29-6.4,22.47-6.43,10.45-.03,21.02,1.05,31.54,3.28,10.62,2.24,19.53,8.8,24.12,17.81,4.25,8.34,6.94,17.45,8.01,26.9Z"/>
          </g>
        </g>
      </g>
    </g>
  </g>
</svg>